<svg width="262" height="45" viewBox="0 0 262 45" fill="none" xmlns="http://www.w3.org/2000/svg">
<g clip-path="url(#clip0_897_23)">
<path d="M196.188 30.7404C196.188 17.3958 220.407 22.0896 220.407 15.4173C220.407 12.9476 217.934 10.4745 212.746 10.4745C208.644 10.4745 205.737 12.0054 204.156 13.9368C203.964 14.1723 203.789 14.4146 203.638 14.6602C203.449 14.9631 203.103 15.1212 202.753 15.0539L197.985 14.1353C197.426 14.0277 197.133 13.4186 197.386 12.9106C199.64 8.39169 204.677 4.53905 212.497 4.53905C221.888 4.53905 226.831 9.97649 226.831 15.4139C226.831 28.2639 202.611 23.8157 202.611 30.737V33.3447C202.611 33.8158 202.991 34.196 203.463 34.196H224.99C225.461 34.196 225.842 34.5762 225.842 35.0473V39.2768C225.842 39.7478 225.461 40.1281 224.99 40.1281H197.036C196.565 40.1281 196.185 39.7478 196.185 39.2768V30.737L196.188 30.7404Z" fill="#F56920"/>
<path d="M261.034 29.2565H256.29C255.859 29.2565 255.506 28.9369 255.445 28.5096C255.122 26.2485 253.241 23.0789 246.602 23.0789H231.141C230.67 23.0789 230.29 22.6986 230.29 22.2276V6.38294C230.293 5.91188 230.674 5.53166 231.145 5.53166H258.601C259.072 5.53166 259.452 5.91188 259.452 6.38294V10.6124C259.452 11.0835 259.072 11.4637 258.601 11.4637H238.063C237.592 11.4637 237.211 11.8439 237.211 12.315V16.5445C237.211 17.0156 237.592 17.3958 238.063 17.3958H248.332C259.005 17.4429 261.542 24.4954 261.882 28.3245C261.925 28.8259 261.535 29.2565 261.034 29.2565Z" fill="#F56920"/>
<path d="M230.391 40.0608C230.273 40.0608 230.179 39.9666 230.179 39.8488V38.2034L230.441 38.1799C230.788 38.1496 231.064 38.0184 231.266 37.7862C231.467 37.554 231.622 37.4733 231.726 36.9753C231.831 36.4773 231.898 35.7909 231.928 34.9194L232.073 31.0029C232.076 30.8885 232.171 30.7976 232.285 30.7976H240.862C240.98 30.7976 241.074 30.8918 241.074 31.0096V39.8488C241.074 39.9666 240.98 40.0608 240.862 40.0608H239.24C239.122 40.0608 239.028 39.9666 239.028 39.8488V33.0083C239.028 32.8905 238.934 32.7963 238.816 32.7963H234.388C234.277 32.7963 234.183 32.8838 234.176 32.9982L234.041 35.5957C234.011 36.2384 233.957 36.7902 233.88 37.2579C233.803 37.7256 233.688 38.1395 233.54 38.5063C233.392 38.873 233.204 39.1658 232.971 39.3912C232.739 39.6133 232.46 39.7815 232.134 39.8959C231.804 40.0103 231.134 40.0641 230.687 40.0641H230.391V40.0608Z" fill="#005B95"/>
<path d="M242.349 39.9127V31.0735C242.349 30.9558 242.443 30.8615 242.561 30.8615H251.367C251.484 30.8615 251.579 30.9558 251.579 31.0735V32.406C251.579 32.5237 251.484 32.6179 251.367 32.6179H244.802C244.684 32.6179 244.59 32.7122 244.59 32.8299V34.3272C244.59 34.445 244.684 34.5392 244.802 34.5392H251.044C251.161 34.5392 251.256 34.6334 251.256 34.7512V36.0836C251.256 36.2014 251.161 36.2956 251.044 36.2956H244.802C244.684 36.2956 244.59 36.3898 244.59 36.5076V38.153C244.59 38.2707 244.684 38.3649 244.802 38.3649H251.383C251.501 38.3649 251.595 38.4592 251.595 38.5769V39.9094C251.595 40.0271 251.501 40.1213 251.383 40.1213H242.558C242.44 40.1213 242.346 40.0271 242.346 39.9094L242.349 39.9127Z" fill="#005B95"/>
<path d="M252.969 32.4093V31.0769C252.969 30.9591 253.063 30.8649 253.181 30.8649H261.788C261.906 30.8649 262 30.9591 262 31.0769V32.4093C262 32.5271 261.906 32.6213 261.788 32.6213H258.807C258.689 32.6213 258.595 32.7155 258.595 32.8333V39.9161C258.595 40.0339 258.5 40.1281 258.383 40.1281H256.727C256.609 40.1281 256.515 40.0339 256.515 39.9161V32.8333C256.515 32.7155 256.421 32.6213 256.303 32.6213H253.181C253.063 32.6213 252.969 32.5271 252.969 32.4093Z" fill="#005B95"/>
<path d="M7.9707 28.5634C5.51106 28.5634 3.57633 28.0284 2.1665 26.955C-0.649802 24.8218 -0.306597 20.1818 0.864337 17.2444C2.5198 13.0452 6.49694 11.1071 10.8442 11.1071C13.9532 11.1071 18.4519 11.8709 18.4519 15.8749C18.4519 21.0903 12.89 21.7464 8.87245 21.7464C7.83947 21.7498 6.80986 21.6993 5.78024 21.5883C5.37311 24.1186 6.99492 24.4517 9.15846 24.482C10.7466 24.4517 12.3213 24.1892 13.8321 23.7047C14.2561 23.5903 14.5185 23.523 14.7608 23.9268L15.962 26.4369C16.1437 26.7464 16.0024 26.9921 15.5347 27.2007C13.2399 28.2168 10.4068 28.5701 7.96397 28.5701M29.2898 14.6434C27.7151 14.6434 26.5071 15.3231 26.2211 16.9348L24.7844 24.6906C25.7602 24.8453 26.746 24.9295 27.7353 24.9429C29.3234 24.9429 31.9648 24.5055 31.9648 22.3992C31.9648 20.7 29.5253 20.811 28.3544 20.811C27.8631 20.811 27.4728 20.7572 27.5771 20.1751L27.8497 18.6475C27.9674 17.9812 28.5058 17.9341 29.0845 17.8837C30.0738 17.8029 31.7225 17.4328 31.7225 16.1374C31.7326 14.9361 30.1814 14.6333 29.2864 14.6333V14.6434H29.2898ZM20.6356 16.9012C21.4028 12.4193 25.6222 11.0364 29.6397 11.0364C32.2239 11.0364 37.0085 11.6858 37.133 15.1683C37.1902 16.8473 35.9621 18.2302 34.4547 18.7922V18.9503C36.1909 19.4449 37.6377 20.4947 37.6377 22.4496C37.6377 27.3117 31.349 28.5533 27.6175 28.5533C24.9795 28.5533 22.0051 28.3413 19.5421 27.3184C19.0677 27.1199 18.923 26.8676 18.997 26.3662L20.6356 16.9045V16.9012ZM42.9271 34.1556C42.8363 34.6805 42.5032 34.6974 42.0355 34.6974H38.1189C37.6882 34.6974 37.3316 34.6772 37.419 34.1556L40.9924 13.4287C41.09 12.9509 41.45 12.5707 41.9211 12.4429C44.5052 11.4704 47.4393 11.171 50.1916 11.171C54.9494 11.171 58.6641 12.9476 58.5362 18.2302C58.3882 24.6233 54.4077 28.4961 48.129 28.4961C46.736 28.5062 45.343 28.3783 43.9769 28.1159L42.9305 34.1556H42.9271ZM49.0678 15.1448C48.0853 15.1448 47.1095 15.2592 46.1573 15.4947L44.6835 24.1724C45.6761 24.4113 46.6923 24.5291 47.7118 24.5223C51.2314 24.5223 52.9137 21.7834 52.9137 18.5129C52.9137 16.0532 51.3626 15.1448 49.0678 15.1448ZM70.5047 15.0169C68.1292 15.0169 66.6184 16.6757 66.0396 18.8628C65.3465 21.4873 65.4811 24.6468 68.9131 24.6468C72.3452 24.6468 73.6507 21.1307 73.6507 18.1932C73.6507 16.1441 72.5706 15.0169 70.5047 15.0169ZM71.0128 11.1037C75.5754 11.1037 79.3573 13.0351 79.3573 18.0654C79.3573 24.9328 74.7207 28.624 68.2907 28.5567C63.9131 28.5096 59.9797 26.9315 59.9797 21.9752C59.9528 20.3904 60.2287 18.8191 60.794 17.3386C62.5201 13.0384 66.6318 11.1003 71.0128 11.1003V11.1037ZM90.1212 14.9193C89.2766 14.9025 88.4321 14.9563 87.5976 15.0775L85.4341 27.6347C85.3399 28.1798 85.0404 28.2067 84.5424 28.2067H80.6898C80.2591 28.2067 79.8587 28.163 79.9495 27.6347L82.3183 13.9974C82.5942 12.4294 83.5397 11.6723 85.0741 11.4233C86.8742 11.1777 88.6945 11.0734 90.5115 11.1138C93.8662 11.1138 98.5465 11.5344 99.4416 15.5182C99.6737 16.7868 99.6603 18.0856 99.4045 19.3473L98.0048 27.6448C97.914 28.1899 97.6111 28.2168 97.1132 28.2168H93.2302C92.7962 28.2168 92.4025 28.1731 92.49 27.6448L93.9671 19.0681C94.1353 18.0889 94.2531 16.7969 93.5768 15.9759C92.7995 14.9933 91.245 14.9193 90.1212 14.9193ZM132.911 15.0135C130.596 15.0135 128.984 16.4738 128.23 18.5903C127.022 21.9887 127.578 24.7478 131.703 24.6771C132.608 24.6536 133.506 24.5257 134.381 24.2935C134.842 21.2787 135.327 18.2437 135.973 15.2659C135.175 15.1279 134.371 15.0505 133.564 15.027C133.308 15.0135 133.086 15.0102 132.904 15.0102L132.911 15.0135ZM133.173 11.134C135.811 11.1407 138.439 11.4301 141.016 11.9886C141.666 12.1299 141.871 12.3621 141.753 13.0081C140.902 17.6078 140.101 22.2343 139.462 26.8676C139.425 27.1805 139.189 27.4295 138.88 27.4867C136.198 28.2269 133.429 28.5903 130.646 28.5668C126.026 28.5668 122.063 27.1166 122.063 22.0762C122.043 20.525 122.292 18.9839 122.793 17.5169C124.401 12.9812 128.624 11.1306 133.17 11.1306L133.173 11.134ZM118.957 27.1435L118.88 27.6011V27.6246C118.782 28.1462 118.496 28.2 117.991 28.2H114.149C113.58 28.2 113.375 27.9948 113.449 27.5809L115.555 15.2659H110.966C110.444 17.4866 109.96 19.7276 109.297 21.9113C108.062 25.949 105.683 27.8635 101.645 28.8393C101.248 28.9335 100.717 28.9537 100.522 28.4591L99.63 26.1711C99.4012 25.5822 99.6771 25.3534 100.215 25.1549C102.578 24.2801 103.634 23.2774 104.506 20.6899C105.212 18.5835 105.609 15.8816 106.232 13.3917C106.598 11.9314 107.467 11.5142 108.91 11.5142H119.435C120.865 11.5142 121.598 11.9381 121.339 13.4489V13.4859L118.961 27.1401L118.957 27.1435ZM147.507 27.5708C147.406 28.1596 147.134 28.1899 146.578 28.1899H142.776C142.208 28.1899 141.965 27.9813 142.036 27.5708L144.714 12.1165C144.785 11.7127 145.091 11.4974 145.606 11.4974H149.415C149.936 11.4974 150.249 11.4974 150.152 12.1165L149.26 17.5539H156.252L157.181 12.1165C157.248 11.7127 157.568 11.4974 158.109 11.4974H161.918C162.437 11.4974 162.76 11.4974 162.659 12.1165L159.98 27.5708C159.879 28.1563 159.671 28.1899 159.089 28.1899H155.29C154.721 28.1899 154.479 27.9813 154.55 27.5708L155.636 21.1811H148.607L147.51 27.5708H147.507ZM10.5346 14.9563C8.37111 14.9563 6.74929 16.2349 6.30515 18.3547C7.68806 18.4691 9.0777 18.4523 10.4573 18.3043C11.5878 18.173 13.0178 17.8837 13.0178 16.4772C13.0178 15.1683 11.534 14.953 10.5346 14.953V14.9563Z" fill="#005B95"/>
<path d="M161.962 33.8292C123.406 26.4739 86.7936 30.737 47.7086 42.8064C46.6117 43.1462 46.4738 43.5702 47.887 43.2674C83.9369 35.5049 123.083 32.9275 161.828 34.6132C162.608 34.6469 163.742 34.6704 163.735 34.482C163.729 34.2936 163.379 34.0917 161.966 33.8225" fill="#F56920"/>
<path d="M168.405 11.9045C169.758 11.9045 170.851 13.0014 170.851 14.3507C170.851 15.7033 169.754 16.7969 168.405 16.7969C167.053 16.7969 165.959 15.6999 165.959 14.3507C165.959 12.998 167.056 11.9045 168.405 11.9045ZM168.405 11.5949C166.884 11.6084 165.66 12.8534 165.673 14.3776C165.686 15.8985 166.931 17.1232 168.456 17.1098C169.97 17.0963 171.188 15.8648 171.188 14.354C171.188 12.8332 169.956 11.6017 168.435 11.6017C168.425 11.6017 168.415 11.6017 168.409 11.6017L168.405 11.5949Z" fill="#005B95"/>
<path d="M168.873 14.4382C168.977 14.4684 169.068 14.529 169.136 14.6098C169.193 14.6939 169.233 14.7881 169.263 14.8857L169.516 15.8143C169.516 15.8143 169.523 15.8446 169.516 15.8581C169.516 15.8581 169.496 15.8783 169.469 15.8783H169.23C169.23 15.8783 169.203 15.8783 169.189 15.8783C169.173 15.8716 169.162 15.8547 169.162 15.8379L168.927 15.0001C168.907 14.9227 168.873 14.8487 168.833 14.7847C168.796 14.7309 168.752 14.6838 168.698 14.6501C168.644 14.6165 168.587 14.5929 168.527 14.5828C168.459 14.5694 168.392 14.5627 168.325 14.5627H167.645V15.8312C167.645 15.8312 167.652 15.8615 167.645 15.8783C167.628 15.8816 167.615 15.8816 167.598 15.8783H167.379C167.379 15.8783 167.346 15.8816 167.329 15.8783C167.325 15.8615 167.325 15.848 167.329 15.8312V13.0485C167.329 12.9947 167.342 12.9408 167.372 12.8971C167.416 12.8567 167.473 12.8365 167.534 12.8433H168.513C168.641 12.8433 168.765 12.8635 168.883 12.9072C168.988 12.9442 169.082 13.0048 169.162 13.0788C169.24 13.1528 169.3 13.2437 169.341 13.3446C169.445 13.6071 169.422 13.8998 169.277 14.1421C169.186 14.2767 169.055 14.3776 168.9 14.4281L168.876 14.4348L168.873 14.4382ZM169.038 13.6946C169.038 13.6239 169.028 13.5566 169.008 13.4893C168.988 13.4254 168.951 13.3648 168.903 13.3177C168.85 13.2639 168.786 13.2235 168.715 13.2033C168.627 13.1697 168.537 13.1562 168.442 13.1562H167.645V14.2565H168.419C168.59 14.2699 168.759 14.2127 168.887 14.0983C168.991 13.9907 169.048 13.8426 169.041 13.6946H169.038Z" fill="#005B95"/>
<path d="M182.416 0V44.5393" stroke="#565656" stroke-width="2" stroke-miterlimit="10"/>
</g>
<defs>
<clipPath id="clip0_897_23">
<rect width="262" height="44.5393" fill="white"/>
</clipPath>
</defs>
</svg>
