<svg width="48" height="48" viewBox="0 0 48 48" fill="none" xmlns="http://www.w3.org/2000/svg">
<path d="M11 40.8701C15.9706 40.8701 20 36.8407 20 31.8701C20 26.8996 15.9706 22.8701 11 22.8701C6.02944 22.8701 2 26.8996 2 31.8701C2 36.8407 6.02944 40.8701 11 40.8701Z" fill="#F89763"/>
<path d="M25.2999 43.21H9.48989C7.77989 43.21 6.38989 41.83 6.38989 40.11V7.1C6.38989 5.39 7.77989 4 9.48989 4H28.0599C29.7699 4 31.1599 5.38 31.1599 7.1V24" stroke="#3C3C3B" stroke-width="2" stroke-linecap="round" stroke-linejoin="round"/>
<path d="M26.01 8.13H11.56C10.9912 8.13 10.53 8.59115 10.53 9.16V19.48C10.53 20.0489 10.9912 20.51 11.56 20.51H26.01C26.5789 20.51 27.04 20.0489 27.04 19.48V9.16C27.04 8.59115 26.5789 8.13 26.01 8.13Z" stroke="#3C3C3B" stroke-width="2" stroke-linecap="round" stroke-linejoin="round"/>
<path d="M35.29 24.04V17.41C35.29 16.27 34.3699 15.35 33.2299 15.35H32.2" stroke="#3C3C3B" stroke-width="2" stroke-linecap="round" stroke-linejoin="round"/>
<path d="M44.5799 5.03003L39.4199 11.22V23.99" stroke="#3C3C3B" stroke-width="2" stroke-linecap="round" stroke-linejoin="round"/>
<path d="M39.4199 18.45H43.5499V13.29C43.2099 12.6 41.8999 11.23 39.4199 11.23" stroke="#3C3C3B" stroke-width="2" stroke-linecap="round" stroke-linejoin="round"/>
<path d="M14.6499 12.25H22.9099" stroke="#3C3C3B" stroke-width="2" stroke-linecap="round" stroke-linejoin="round"/>
<path d="M14.6499 16.38H18.7799" stroke="#3C3C3B" stroke-width="2" stroke-linecap="round" stroke-linejoin="round"/>
<path d="M30.3201 43.4L41.6101 28.01" stroke="#3C3C3B" stroke-width="2" stroke-linecap="round" stroke-linejoin="round"/>
<path d="M31.6401 33.69C33.0484 33.69 34.1901 32.4185 34.1901 30.85C34.1901 29.2815 33.0484 28.01 31.6401 28.01C30.2318 28.01 29.0901 29.2815 29.0901 30.85C29.0901 32.4185 30.2318 33.69 31.6401 33.69Z" stroke="#3C3C3B" stroke-width="2" stroke-linecap="round" stroke-linejoin="round"/>
<path d="M40.29 43.4C41.6983 43.4 42.84 42.1285 42.84 40.56C42.84 38.9915 41.6983 37.72 40.29 37.72C38.8817 37.72 37.74 38.9915 37.74 40.56C37.74 42.1285 38.8817 43.4 40.29 43.4Z" stroke="#3C3C3B" stroke-width="2" stroke-linecap="round" stroke-linejoin="round"/>
</svg>
