<svg width="24" height="24" viewBox="0 0 24 24" fill="none" xmlns="http://www.w3.org/2000/svg">
<path d="M23 8L24 8V8H23ZM23 20H22H23ZM21 5C20.4477 5 20 5.44772 20 6C20 6.55228 20.4477 7 21 7V5ZM12 7C12.5523 7 13 6.55228 13 6C13 5.44772 12.5523 5 12 5V7ZM21 21H12V23H21V21ZM9 8V20H11V8H9ZM22 8L22 20H24L24 8L22 8ZM12 21C11.4477 21 11 20.5523 11 20H9C9 21.6569 10.3431 23 12 23V21ZM24 8C24 6.34315 22.6569 5 21 5V7C21.5523 7 22 7.44772 22 8H24ZM21 23C22.6569 23 24 21.6569 24 20H22C22 20.5523 21.5523 21 21 21V23ZM11 8C11 7.44772 11.4477 7 12 7V5C10.3431 5 9 6.34315 9 8H11Z" fill="#F56920"/>
<rect x="13" y="13" width="2" height="2" rx="1" fill="#F56920"/>
<rect x="16" y="13" width="4" height="2" fill="#F56920"/>
<rect x="13" y="17" width="2" height="2" rx="1" fill="#F56920"/>
<rect x="13" y="9" width="2" height="2" rx="1" fill="#F56920"/>
<rect x="16" y="17" width="4" height="2" fill="#F56920"/>
<rect x="16" y="9" width="4" height="2" fill="#F56920"/>
<path d="M14 5C14 4.44772 14.4477 4 15 4H18C18.5523 4 19 4.44772 19 5V6C19 6.55228 18.5523 7 18 7H15C14.4477 7 14 6.55228 14 6V5Z" fill="#F56920"/>
<path d="M15 2C15 1.44772 15.4477 1 16 1H17C17.5523 1 18 1.44772 18 2C18 2.55228 17.5523 3 17 3H16C15.4477 3 15 2.55228 15 2Z" fill="#F56920"/>
<path d="M0.038476 12.7253C-0.113248 13.2563 0.194244 13.8098 0.725279 13.9615C1.25631 14.1132 1.8098 13.8058 1.96152 13.2747L0.038476 12.7253ZM2.37833 8.17584L3.33986 8.45056L2.37833 8.17584ZM1.96152 13.2747L3.33986 8.45056L1.41681 7.90112L0.038476 12.7253L1.96152 13.2747ZM5.2629 7H7V5H5.2629V7ZM3.33986 8.45056C3.58517 7.59196 4.36994 7 5.2629 7V5C3.47698 5 1.90744 6.18391 1.41681 7.90112L3.33986 8.45056Z" fill="#F56920"/>
<path d="M7 12.6786C5.11572 12.5906 3.89724 12.4195 2.14146 12.1648C1.5393 12.0775 1 12.5443 1 13.1528V18.282C3.44204 18.646 4.74602 18.8855 7 19" stroke="#F56920" stroke-width="2"/>
<path d="M0 17L3 18V21C3 21.5523 2.55228 22 2 22H1C0.447715 22 0 21.5523 0 21V17Z" fill="#F56920"/>
<rect x="3" y="14" width="2" height="2" rx="1" fill="#F56920"/>
</svg>
