<svg width="24" height="24" viewBox="0 0 24 24" fill="none" xmlns="http://www.w3.org/2000/svg">
<rect x="6" y="3" width="12" height="18" rx="3" stroke="#F56920" stroke-width="2"/>
<path d="M6 5H4C2.89543 5 2 5.89543 2 7V17C2 18.1046 2.89543 19 4 19H6" stroke="#F56920" stroke-width="2"/>
<path d="M18 5H20C21.1046 5 22 5.89543 22 7V17C22 18.1046 21.1046 19 20 19H18" stroke="#F56920" stroke-width="2"/>
<path d="M15 11.5L14.6608 9.80388C14.5673 9.33646 14.1569 9 13.6802 9H10.3198C9.84312 9 9.43271 9.33646 9.33922 9.80388L9 11.5" stroke="#F56920"/>
<path d="M8 13H9V14.7C9 14.8657 8.86569 15 8.7 15H8.3C8.13431 15 8 14.8657 8 14.7V13Z" fill="#F56920"/>
<path d="M15 13H16V14.7C16 14.8657 15.8657 15 15.7 15H15.3C15.1343 15 15 14.8657 15 14.7V13Z" fill="#F56920"/>
<path fill-rule="evenodd" clip-rule="evenodd" d="M8 12C8 11.4477 8.44772 11 9 11H15C15.5523 11 16 11.4477 16 12V13C16 13.5523 15.5523 14 15 14H9C8.44772 14 8 13.5523 8 13V12ZM10 12.5C10 12.7761 9.77614 13 9.5 13C9.22386 13 9 12.7761 9 12.5C9 12.2239 9.22386 12 9.5 12C9.77614 12 10 12.2239 10 12.5ZM14.5 13C14.7761 13 15 12.7761 15 12.5C15 12.2239 14.7761 12 14.5 12C14.2239 12 14 12.2239 14 12.5C14 12.7761 14.2239 13 14.5 13Z" fill="#F56920"/>
</svg>
