<svg width="24" height="24" viewBox="0 0 24 24" fill="none" xmlns="http://www.w3.org/2000/svg">
<path d="M6.49995 9C9.62757 6.76598 10.2266 4.39887 10.4375 2.96904C10.4697 2.75116 10.714 2.63698 10.894 2.76375C14.7989 5.51271 14.9485 9.84129 13.6118 12.3041C13.5704 12.3804 13.6364 12.4717 13.7208 12.4514C15.7833 11.9551 17.1314 10.4408 17.7653 9.41729C17.8819 9.22906 18.159 9.20809 18.2862 9.38934C22.7543 15.757 16.7663 22 14.5 22C12.2601 22 10.6065 17.778 10.0506 15.6954C10.0292 15.6155 9.9262 15.5936 9.87754 15.6606C8.62674 17.3813 8.63585 19.9617 8.86755 21.3846C8.90818 21.634 8.65215 21.8475 8.42556 21.7355C2.05034 18.5861 2.95569 11.5316 6.49995 9Z" stroke="#F56920" stroke-width="2"/>
</svg>
